<svg version="1.1" id="Ebene_1" xmlns="http://www.w3.org/2000/svg" xmlns:xlink="http://www.w3.org/1999/xlink" x="0px" y="0px" width="315" height="290" viewBox="133.03713989257812 -0.00065481016645208 73.26345825195312 67.44889699766645" xml:space="preserve" style="">
<style type="text/css">
	.st0{clip-path:url(#SVGID_00000075877808953131520200000003527704362204535208_);}
	.st1{clip-path:url(#SVGID_00000118382475980710960090000015447839172992128640_);}
	.st2{clip-path:url(#SVGID_00000012451577099348600570000013106760292261847975_);}
	.st3{fill:#D3095F;}
	.st4{clip-path:url(#SVGID_00000068664903386267655570000013389888305282571666_);}
	.st5{enable-background:new    ;}
	.st6{fill:#E5006C;}
</style>
<g>
	<defs>
		<rect id="SVGID_1_" x="-1.1" y="0.8" width="202.4" height="75"/>
	</defs>
	<clipPath id="SVGID_00000067927939915050193970000015128703319346786702_">
		<use xlink:href="#SVGID_1_" style="overflow:visible;"/>
	</clipPath>
	<g style="clip-path:url(#SVGID_00000067927939915050193970000015128703319346786702_);">
		<g>
			<g>
				<defs>
					<rect id="SVGID_00000084491676160075083860000000851752473359145106_" x="-1.1" y="0.8" width="202.4" height="75"/>
				</defs>
				<clipPath id="SVGID_00000074434906843828514300000017866826840579686300_">
					<use xlink:href="#SVGID_00000084491676160075083860000000851752473359145106_" style="overflow:visible;"/>
				</clipPath>
				<g style="clip-path:url(#SVGID_00000074434906843828514300000017866826840579686300_);">
					<g>
						<defs>
							<rect id="SVGID_00000027598227288515054300000013635657720066668194_" x="1.6" y="0.9" width="199.4" height="63.5"/>
						</defs>
						<clipPath id="SVGID_00000073685070518407651550000013983002872701675670_">
							<use xlink:href="#SVGID_00000027598227288515054300000013635657720066668194_" style="overflow:visible;"/>
						</clipPath>
						<g style="clip-path:url(#SVGID_00000073685070518407651550000013983002872701675670_);">
							<path class="st3" d="M200.9,31.7L200.9,31.7l-0.1-0.1c-1.5-0.8-3.1-1.3-4.8-1.3c0-0.2-0.2-1.8-0.3-2.1&#10;&#9;&#9;&#9;&#9;&#9;&#9;&#9;&#9;c1.6-0.5,3.1-1.3,4.3-2.5l0.1-0.1l0-0.1c-0.1-0.7-0.3-1.4-0.5-2l0-0.1l-0.1,0c-1.6-0.4-3.4-0.4-5,0c-0.1-0.2-0.7-1.7-0.8-1.9&#10;&#9;&#9;&#9;&#9;&#9;&#9;&#9;&#9;c1.4-0.9,2.7-2.1,3.5-3.5l0-0.1l0-0.1c-0.3-0.6-0.6-1.2-1-1.8l-0.1-0.1h-0.1c-1.7,0-3.4,0.5-4.8,1.3&#10;&#9;&#9;&#9;&#9;&#9;&#9;&#9;&#9;c-0.1-0.2-1.1-1.5-1.3-1.7c1.2-1.2,2.1-2.7,2.5-4.4l0-0.1l-0.1-0.1c-0.4-0.5-0.9-1-1.4-1.5l-0.1-0.1l-0.1,0&#10;&#9;&#9;&#9;&#9;&#9;&#9;&#9;&#9;c-1.6,0.5-3.1,1.3-4.3,2.5c-0.2-0.1-1.5-1.2-1.7-1.3c0.8-1.4,1.3-3.1,1.3-4.7c0,0,0-0.2,0-0.2l-0.1,0c-0.6-0.4-1.2-0.8-1.8-1&#10;&#9;&#9;&#9;&#9;&#9;&#9;&#9;&#9;l-0.1,0l-0.1,0c-1.5,0.9-2.7,2.1-3.5,3.5c-0.2-0.1-1.8-0.8-2-0.8c0.2-0.8,0.3-1.7,0.3-2.6c0-0.8-0.1-1.7-0.3-2.5l0-0.1&#10;&#9;&#9;&#9;&#9;&#9;&#9;&#9;&#9;l-0.1,0c-0.6-0.3-1.3-0.4-2-0.5h-0.1l-0.1,0.1c-1.2,1.2-2.1,2.7-2.5,4.3c-0.2,0-1.9-0.2-2.1-0.3c0-1.7-0.5-3.4-1.3-4.8l0-0.1&#10;&#9;&#9;&#9;&#9;&#9;&#9;&#9;&#9;h-0.1c-0.7-0.1-1.4-0.1-2.1,0h-0.1l0,0.1c-0.8,1.5-1.3,3.1-1.3,4.8c-0.2,0-1.9,0.2-2.1,0.3c-0.5-1.6-1.3-3.1-2.5-4.4&#10;&#9;&#9;&#9;&#9;&#9;&#9;&#9;&#9;l-0.1-0.1H162c-0.7,0.1-1.3,0.3-2,0.5l-0.1,0l0,0.1c-0.2,0.8-0.3,1.7-0.3,2.5c0,0.8,0.1,1.7,0.3,2.5c-0.2,0.1-1.8,0.8-2,0.9&#10;&#9;&#9;&#9;&#9;&#9;&#9;&#9;&#9;c-0.9-1.5-2.1-2.7-3.5-3.5l-0.1,0l-0.1,0c-0.6,0.3-1.2,0.6-1.8,1l-0.1,0V6c0,1.7,0.5,3.3,1.3,4.7c-0.2,0.2-1.4,1.1-1.6,1.2&#10;&#9;&#9;&#9;&#9;&#9;&#9;&#9;&#9;c-1.2-1.2-2.7-2.1-4.4-2.5l-0.1,0l-0.1,0.1c-0.5,0.4-1,0.9-1.5,1.5l-0.1,0.1l0,0.1c0.5,1.6,1.3,3.1,2.5,4.3&#10;&#9;&#9;&#9;&#9;&#9;&#9;&#9;&#9;c-0.1,0.2-1.2,1.5-1.3,1.7c-1.5-0.8-3.1-1.3-4.8-1.3h-0.1l-0.1,0.1c-0.4,0.6-0.8,1.2-1,1.8l0,0.1l0,0.1&#10;&#9;&#9;&#9;&#9;&#9;&#9;&#9;&#9;c0.9,1.5,2.1,2.7,3.5,3.6c-0.1,0.2-0.7,1.7-0.8,1.9c-1.6-0.4-3.4-0.4-5,0l-0.1,0l0,0.1c-0.3,0.6-0.4,1.3-0.5,2v0.1l0.1,0.1&#10;&#9;&#9;&#9;&#9;&#9;&#9;&#9;&#9;c1.2,1.2,2.7,2,4.3,2.5c0,0.2-0.2,1.9-0.3,2.1c-1.7,0-3.4,0.5-4.8,1.3l-0.1,0v0.1c0,0.3-0.1,0.7-0.1,1c0,0.3,0,0.7,0.1,1v0.1&#10;&#9;&#9;&#9;&#9;&#9;&#9;&#9;&#9;l0.1,0c1.5,0.8,3.1,1.3,4.8,1.3c0,0.2,0.3,1.9,0.3,2.1c-1.6,0.5-3.1,1.3-4.3,2.5l-0.1,0.1v0.1c0.1,0.7,0.3,1.3,0.5,2l0,0.1&#10;&#9;&#9;&#9;&#9;&#9;&#9;&#9;&#9;l0.1,0c1.6,0.4,3.4,0.4,5,0c0.1,0.2,0.7,1.7,0.8,1.9c-1.5,0.9-2.7,2.1-3.5,3.5l0,0.1l0,0.1c0.3,0.6,0.6,1.2,1,1.8l0.1,0.1&#10;&#9;&#9;&#9;&#9;&#9;&#9;&#9;&#9;h0.1c1.7,0,3.4-0.5,4.8-1.3c0.1,0.2,1.2,1.5,1.3,1.7c-1.2,1.2-2.1,2.7-2.5,4.3l0,0.1l0,0.1c0.4,0.5,0.9,1,1.5,1.5l0.1,0.1&#10;&#9;&#9;&#9;&#9;&#9;&#9;&#9;&#9;l0.1,0c1.6-0.4,3.1-1.3,4.3-2.5c0.2,0.1,1.5,1.2,1.7,1.3c-0.8,1.5-1.3,3.1-1.3,4.8v0.2l0.1,0.1c0.6,0.4,1.1,0.7,1.8,1l0.1,0&#10;&#9;&#9;&#9;&#9;&#9;&#9;&#9;&#9;l0.1,0c1.5-0.9,2.7-2.1,3.6-3.6l1.9,0.8c-0.2,0.8-0.3,1.7-0.3,2.5c0,0.8,0.1,1.7,0.3,2.5l0,0.1l0.1,0c0.6,0.3,1.3,0.4,2,0.5&#10;&#9;&#9;&#9;&#9;&#9;&#9;&#9;&#9;l0.1,0l0.1-0.1c1.2-1.2,2.1-2.7,2.5-4.3c0.2,0,1.9,0.3,2.1,0.3c0,1.7,0.5,3.4,1.3,4.8l0,0.1h0.1c0.7,0.1,1.4,0.1,2.1,0h0.1&#10;&#9;&#9;&#9;&#9;&#9;&#9;&#9;&#9;l0-0.1c0.8-1.5,1.3-3.1,1.3-4.8c0.2,0,1.8-0.2,2-0.3c0.4,1.6,1.3,3.1,2.5,4.3l0.1,0.1h0.1c0.7-0.1,1.4-0.3,2-0.5l0.1,0l0-0.1&#10;&#9;&#9;&#9;&#9;&#9;&#9;&#9;&#9;c0.2-0.8,0.3-1.7,0.3-2.5c0-0.9-0.1-1.7-0.3-2.5c0.2-0.1,1.7-0.7,2-0.8c0.9,1.5,2.1,2.7,3.5,3.5l0.1,0l0.1,0&#10;&#9;&#9;&#9;&#9;&#9;&#9;&#9;&#9;c0.6-0.3,1.2-0.6,1.8-1l0.1,0c0,0,0-0.2,0-0.2c0-1.6-0.5-3.3-1.3-4.7c0.2-0.1,1.4-1.1,1.6-1.3c1.2,1.2,2.7,2,4.4,2.5l0.1,0&#10;&#9;&#9;&#9;&#9;&#9;&#9;&#9;&#9;l0.1-0.1c0.5-0.4,1-0.9,1.5-1.4l0.1-0.1l0-0.1c-0.4-1.6-1.3-3.1-2.5-4.3c0.1-0.2,1.1-1.5,1.3-1.7c1.5,0.8,3.1,1.3,4.8,1.3&#10;&#9;&#9;&#9;&#9;&#9;&#9;&#9;&#9;h0.1l0.1-0.1c0.4-0.6,0.8-1.2,1-1.8l0-0.1l0-0.1c-0.9-1.5-2.1-2.7-3.5-3.6c0.1-0.2,0.7-1.7,0.8-1.9c1.6,0.4,3.4,0.4,5,0&#10;&#9;&#9;&#9;&#9;&#9;&#9;&#9;&#9;l0.1,0l0-0.1c0.3-0.6,0.4-1.3,0.5-2v-0.1l-0.1-0.1c-1.2-1.2-2.7-2.1-4.3-2.5c0-0.2,0.3-1.8,0.3-2c1.7,0,3.4-0.5,4.9-1.3&#10;&#9;&#9;&#9;&#9;&#9;&#9;&#9;&#9;l0.1,0v-0.1c0-0.3,0.1-0.7,0.1-1C201,32.4,200.9,32,200.9,31.7 M169.2,56.3c-13.1,0-23.8-10.7-23.8-23.8&#10;&#9;&#9;&#9;&#9;&#9;&#9;&#9;&#9;c0-13.1,10.7-23.8,23.8-23.8c13.1,0,23.8,10.7,23.8,23.8v0C193,45.6,182.4,56.3,169.2,56.3"/>
							<path class="st3" d="M169.2,11.5c-11.6,0-20.9,9.4-20.9,20.9s9.4,20.9,20.9,20.9s20.9-9.4,20.9-20.9c0,0,0,0,0,0&#10;&#9;&#9;&#9;&#9;&#9;&#9;&#9;&#9;C190.2,20.9,180.8,11.5,169.2,11.5 M171.9,14.9c0.2-0.1,0.5-0.2,0.7-0.1c4.2,1,7.3,2.8,10.3,6c0.2,0.2,0.3,0.4,0.3,0.6&#10;&#9;&#9;&#9;&#9;&#9;&#9;&#9;&#9;c0,0,0,0,0,0.1c-0.1,0.3-0.4,0.4-0.7,0.6l-8.8,4.3c-0.3,0.2-0.6,0.2-0.9,0c-0.3-0.2-0.4-0.5-0.5-0.8l-0.7-9.8&#10;&#9;&#9;&#9;&#9;&#9;&#9;&#9;&#9;C171.7,15.3,171.7,15,171.9,14.9 M155.5,20.9L155.5,20.9c3-3.2,6.1-5,10.3-6c0.2-0.1,0.5-0.1,0.7,0.1&#10;&#9;&#9;&#9;&#9;&#9;&#9;&#9;&#9;c0.2,0.1,0.2,0.4,0.2,0.9l-0.7,9.8c0,0.5-0.3,0.9-0.8,0.9c-0.2,0-0.4,0-0.5-0.1l-8.8-4.3c-0.3-0.1-0.6-0.3-0.7-0.6&#10;&#9;&#9;&#9;&#9;&#9;&#9;&#9;&#9;C155.2,21.3,155.3,21,155.5,20.9 M153.4,39c-0.4,0.3-0.7,0.4-0.9,0.3c-0.2-0.1-0.3-0.3-0.4-0.6c-1.2-4.2-1.2-7.7,0-11.9&#10;&#9;&#9;&#9;&#9;&#9;&#9;&#9;&#9;c0.1-0.4,0.3-0.6,0.4-0.6c0.3-0.1,0.6,0.1,0.8,0.3l8.1,5.5c0.3,0.2,0.5,0.5,0.5,0.8c0,0.3-0.2,0.6-0.5,0.8L153.4,39z&#10;&#9;&#9;&#9;&#9;&#9;&#9;&#9;&#9; M166.7,50.4c-0.2,0.1-0.5,0.1-0.7,0c-4.2-1-7.3-2.8-10.3-6c-0.2-0.2-0.3-0.4-0.3-0.6c0,0,0-0.1,0-0.1c0-0.3,0.4-0.4,0.7-0.6&#10;&#9;&#9;&#9;&#9;&#9;&#9;&#9;&#9;l8.8-4.3c0.4-0.3,1-0.2,1.2,0.2c0.1,0.2,0.2,0.4,0.2,0.6l0.7,9.8C167,50,166.9,50.3,166.7,50.4 M169.2,38.2&#10;&#9;&#9;&#9;&#9;&#9;&#9;&#9;&#9;c-3.2,0-5.7-2.6-5.7-5.7c0-1.9,1-3.7,2.6-4.8c0.5-0.3,1.3-0.1,1.6,0.4c0.3,0.5,0.2,1.2-0.3,1.5c-1.6,1-2,3.1-1,4.7&#10;&#9;&#9;&#9;&#9;&#9;&#9;&#9;&#9;c1,1.6,3.1,2,4.7,1c1.6-1,2-3.1,1-4.7c-0.3-0.4-0.6-0.7-1-1c-0.5-0.4-0.7-1.1-0.3-1.6c0.4-0.5,1.1-0.7,1.6-0.3&#10;&#9;&#9;&#9;&#9;&#9;&#9;&#9;&#9;c2.6,1.7,3.4,5.3,1.6,7.9C172.9,37.2,171.1,38.2,169.2,38.2 M182.9,44.4c-3,3.2-6.1,4.9-10.3,6c-0.2,0.1-0.5,0.1-0.8-0.1&#10;&#9;&#9;&#9;&#9;&#9;&#9;&#9;&#9;c-0.2-0.2-0.2-0.6-0.2-0.9l0.7-9.8c0-0.3,0.2-0.6,0.5-0.8c0.3-0.1,0.6-0.1,0.9,0l8.8,4.3c0.4,0.2,0.6,0.4,0.7,0.6&#10;&#9;&#9;&#9;&#9;&#9;&#9;&#9;&#9;C183.3,44,183.2,44.2,182.9,44.4 M185.9,26.1c0.2,0.1,0.3,0.3,0.4,0.6c1.2,4.2,1.2,7.7,0,11.9c0,0.3-0.2,0.5-0.4,0.6&#10;&#9;&#9;&#9;&#9;&#9;&#9;&#9;&#9;c-0.3,0.1-0.6-0.1-0.8-0.3l-8.1-5.5c-0.3-0.2-0.5-0.5-0.5-0.8c0-0.3,0.2-0.6,0.5-0.8l8.1-5.5C185.4,26.1,185.7,26,185.9,26.1&#10;&#9;&#9;&#9;&#9;&#9;&#9;&#9;&#9;"/>
							<path class="st3" d="M50.2,39.4c-0.6,0-1.6,0.1-2.2,0.1c-1.8,0-1.9-0.9-1.9-3.4v-7.4h4.2c0.4,0,0.7-0.3,0.7-0.7c0,0,0,0,0,0&#10;&#9;&#9;&#9;&#9;&#9;&#9;&#9;&#9;v-2.4c0-0.4-0.3-0.7-0.7-0.7c0,0,0,0,0,0h-4.2v-3.5c0-0.2-0.1-0.4-0.3-0.5c-0.2-0.1-0.4-0.2-0.6-0.1l-2.8,0.7&#10;&#9;&#9;&#9;&#9;&#9;&#9;&#9;&#9;c-0.3,0.1-0.5,0.4-0.5,0.7V25h-1.6c-0.4,0-0.7,0.3-0.7,0.7l0,0V28c0,0.4,0.3,0.7,0.7,0.7c0,0,0,0,0,0h1.6v7.9&#10;&#9;&#9;&#9;&#9;&#9;&#9;&#9;&#9;c0,5.2,1.3,6.8,5.4,6.8c1-0.1,2.1-0.2,3.1-0.4c0.3-0.1,0.6-0.4,0.6-0.7l-0.1-2.3C50.9,39.7,50.6,39.4,50.2,39.4"/>
							<path class="st3" d="M29.8,24.5c-5.6,0-8.1,2.9-8.1,9.4c0,6.6,2.5,9.5,8.1,9.5s8.1-2.9,8.1-9.5&#10;&#9;&#9;&#9;&#9;&#9;&#9;&#9;&#9;C37.9,27.5,35.3,24.5,29.8,24.5 M29.8,39.7c-3.3,0-3.9-2-3.9-5.8c0-4.1,1-5.6,3.9-5.6c2.8,0,3.9,1.6,3.9,5.6&#10;&#9;&#9;&#9;&#9;&#9;&#9;&#9;&#9;C33.7,37.6,33.1,39.7,29.8,39.7"/>
							<path class="st3" d="M14.8,32.1c2.9-1.4,4.2-3.5,4.2-6.4c0-3.5-1.5-7.6-8.5-7.6H9.9c-2.6,0-5.1,0.2-7.7,0.5&#10;&#9;&#9;&#9;&#9;&#9;&#9;&#9;&#9;c-0.3,0-0.6,0.3-0.6,0.7v23.1C1.6,42.7,2,43,2.3,43c0,0,0,0,0,0h2.9c0.4,0,0.7-0.3,0.7-0.7l0,0v-9.1c1,0.1,2.7,0.2,4.8,0.2&#10;&#9;&#9;&#9;&#9;&#9;&#9;&#9;&#9;l4.1,9.2c0.1,0.2,0.4,0.4,0.6,0.4h3.2c0.2,0,0.5-0.1,0.6-0.3c0.1-0.2,0.1-0.4,0.1-0.7L14.8,32.1z M10.3,29.5&#10;&#9;&#9;&#9;&#9;&#9;&#9;&#9;&#9;c-2.1,0-3.6-0.1-4.4-0.1v-7.1C6.9,22.1,8,22,9,22h1.5c3.1,0,4.1,1.9,4.1,3.7C14.7,28.1,13,29.5,10.3,29.5"/>
							<path class="st3" d="M129,39.4c-0.6,0-1.6,0.1-2.2,0.1c-1.8,0-1.9-0.9-1.9-3.4v-7.4h4.2c0.4,0,0.7-0.3,0.7-0.7c0,0,0,0,0,0&#10;&#9;&#9;&#9;&#9;&#9;&#9;&#9;&#9;v-2.4c0-0.4-0.3-0.7-0.7-0.7c0,0,0,0,0,0h-4.2v-3.5c0-0.2-0.1-0.4-0.3-0.5c-0.2-0.1-0.4-0.2-0.6-0.1l-2.8,0.7&#10;&#9;&#9;&#9;&#9;&#9;&#9;&#9;&#9;c-0.3,0.1-0.5,0.4-0.5,0.7V25h-1.6c-0.4,0-0.7,0.3-0.7,0.7V28c0,0.4,0.3,0.7,0.7,0.7c0,0,0,0,0,0h1.6v7.9&#10;&#9;&#9;&#9;&#9;&#9;&#9;&#9;&#9;c0,5.2,1.3,6.8,5.4,6.8c1-0.1,2.1-0.2,3.1-0.4c0.3-0.1,0.6-0.4,0.6-0.7l-0.1-2.3C129.6,39.7,129.3,39.4,129,39.4"/>
							<path class="st3" d="M109.9,28.3c2,0,3.8,0.4,5.3,0.6c0.2,0,0.4,0,0.5-0.2c0.1-0.1,0.2-0.3,0.2-0.5l0.1-2.3&#10;&#9;&#9;&#9;&#9;&#9;&#9;&#9;&#9;c0-0.3-0.2-0.6-0.6-0.7c-1.3-0.2-3.5-0.7-5.5-0.7c-5.6,0-8.1,2.9-8.1,9.4c0,0,0,0.1,0,0.1l0,0c0,6.5,2.5,9.4,8.1,9.4&#10;&#9;&#9;&#9;&#9;&#9;&#9;&#9;&#9;c2.1,0,4.2-0.5,5.5-0.7c0.3-0.1,0.6-0.4,0.6-0.7l-0.1-2.3c0-0.2-0.1-0.4-0.2-0.5c-0.1-0.1-0.3-0.2-0.5-0.2&#10;&#9;&#9;&#9;&#9;&#9;&#9;&#9;&#9;c-1.5,0.1-3.3,0.6-5.3,0.6c-2.5,0-3.6-1.1-3.9-4.1c0-0.1,0-0.1,0-0.2c0-0.1,0-0.2,0-0.4s0-0.3,0-0.4c0-0.1,0-0.2,0-0.3&#10;&#9;&#9;&#9;&#9;&#9;&#9;&#9;&#9;c0-0.2,0-0.3,0-0.5C106,29.8,107,28.3,109.9,28.3"/>
							<path class="st3" d="M92.6,24.5c-2.1,0-5.4,0.5-6.7,0.7c-0.3,0-0.6,0.4-0.6,0.7l0.1,2.3c0,0.2,0.1,0.4,0.2,0.5&#10;&#9;&#9;&#9;&#9;&#9;&#9;&#9;&#9;c0.1,0.1,0.3,0.2,0.5,0.2c1.5-0.1,4.3-0.4,6.2-0.4c1.4,0,2.2,0.8,2.2,2.2v1.1l-4.5,0.4c-4.3,0.3-6,1.9-6,5.5&#10;&#9;&#9;&#9;&#9;&#9;&#9;&#9;&#9;c0,3.7,1.9,5.8,5.2,5.8c2.8,0,5.9-1.2,5.9-1.3c0.8,0.6,1.7,1,2.7,1.1c0.4,0.1,0.7-0.2,0.8-0.6c0,0,0-0.1,0-0.1v-12&#10;&#9;&#9;&#9;&#9;&#9;&#9;&#9;&#9;C98.8,26.5,96.8,24.5,92.6,24.5 M94.6,39.1c0,0-2.6,0.7-4.5,0.7c-1.6,0-1.8-1.5-1.8-2.4c0-1.4,0.8-2.2,2.4-2.3l4-0.2V39.1z"/>
							<path class="st3" d="M61.6,24.5c-2.1,0-5.4,0.5-6.7,0.7c-0.3,0-0.6,0.4-0.6,0.7l0.1,2.3c0,0.2,0.1,0.4,0.2,0.5&#10;&#9;&#9;&#9;&#9;&#9;&#9;&#9;&#9;c0.1,0.1,0.3,0.2,0.5,0.2c1.5-0.1,4.3-0.4,6.3-0.4c1.4,0,2.2,0.8,2.2,2.2v1.1l-4.5,0.4c-4.3,0.3-6,1.9-6,5.5&#10;&#9;&#9;&#9;&#9;&#9;&#9;&#9;&#9;c0,3.7,1.9,5.8,5.2,5.8c2.8,0,5.9-1.2,5.9-1.3c0.8,0.6,1.7,1,2.7,1.1c0.4,0.1,0.7-0.2,0.8-0.6c0,0,0-0.1,0-0.1v-12&#10;&#9;&#9;&#9;&#9;&#9;&#9;&#9;&#9;C67.7,26.5,65.7,24.5,61.6,24.5 M63.6,39.1c0,0-2.6,0.7-4.5,0.7c-1.6,0-1.8-1.5-1.8-2.4c0-1.4,0.8-2.2,2.4-2.3l4-0.2V39.1z"/>
							<path class="st3" d="M81.1,24.8c-1.8,0.1-3.6,1.1-4.7,1.9v-1.1c0-0.4-0.3-0.7-0.7-0.7h-2.8c-0.4,0-0.7,0.3-0.7,0.7v16.7&#10;&#9;&#9;&#9;&#9;&#9;&#9;&#9;&#9;c0,0.4,0.3,0.7,0.7,0.7h2.8c0.4,0,0.7-0.3,0.7-0.7V30.8c0.6-0.5,2.5-2,4.8-2.2c0.4,0,0.6-0.3,0.6-0.7v-2.4&#10;&#9;&#9;&#9;&#9;&#9;&#9;&#9;&#9;c0-0.2-0.1-0.4-0.2-0.5C81.4,24.9,81.2,24.8,81.1,24.8"/>
						</g>
					</g>
					<g>
						<defs>
							<rect id="SVGID_00000160183506014834177010000015542586310805722012_" x="-192.3" y="-46.3" width="417.6" height="165.3"/>
						</defs>
						<clipPath id="SVGID_00000096778970600164287050000010041687088482899635_">
							<use xlink:href="#SVGID_00000160183506014834177010000015542586310805722012_" style="overflow:visible;"/>
						</clipPath>
						<g style="clip-path:url(#SVGID_00000096778970600164287050000010041687088482899635_);">
							<g class="st5">
								<path class="st6" d="M5.1,57.2H3.9v-1.7h1.3V57.2z M3.9,60h1.3v10.5H3.9V60z"/>
								<path class="st6" d="M8.4,62.4c0-0.8,0-1.6-0.1-2.5h1.3v1.9h0c0.4-0.9,1.2-2.1,3.4-2.1c2.6,0,3.6,1.7,3.6,4v6.7h-1.3v-6.4&#10;&#9;&#9;&#9;&#9;&#9;&#9;&#9;&#9;&#9;c0-2-0.7-3.3-2.5-3.3c-2.4,0-3.1,2.1-3.1,3.8v5.8H8.4V62.4z"/>
								<path class="st6" d="M25.6,56.1h3.6c5.1,0,7.2,3,7.2,7.2c0,5.2-3.5,7.2-8.2,7.2h-2.5V56.1z M27,69.2h1.2&#10;&#9;&#9;&#9;&#9;&#9;&#9;&#9;&#9;&#9;c4.1,0,6.7-1.6,6.7-6.1c0-4.4-2.6-5.8-5.8-5.8H27V69.2z"/>
								<path class="st6" d="M46.4,70.1c-0.9,0.4-2.1,0.6-3,0.6c-3.5,0-4.8-2.3-4.8-5.5c0-3.2,1.8-5.5,4.4-5.5c3,0,4.2,2.4,4.2,5.2&#10;&#9;&#9;&#9;&#9;&#9;&#9;&#9;&#9;&#9;v0.7H40c0,2.2,1.2,4,3.5,4c0.9,0,2.3-0.4,2.9-0.8V70.1z M45.7,64.5c0-1.8-0.7-3.6-2.7-3.6c-1.9,0-3.1,1.9-3.1,3.6H45.7z"/>
								<path class="st6" d="M57.8,68c0,0.8,0,1.6,0.1,2.5h-1.3v-1.9h0c-0.4,0.9-1.2,2.1-3.4,2.1c-2.6,0-3.6-1.7-3.6-4V60h1.3v6.4&#10;&#9;&#9;&#9;&#9;&#9;&#9;&#9;&#9;&#9;c0,2,0.7,3.3,2.5,3.3c2.4,0,3.1-2.1,3.1-3.8V60h1.3V68z"/>
								<path class="st6" d="M65.6,61.1h-2.4v6.8c0,0.9,0.3,1.7,1.4,1.7c0.5,0,0.8-0.1,1.2-0.2l0.1,1.1c-0.3,0.1-0.9,0.3-1.6,0.3&#10;&#9;&#9;&#9;&#9;&#9;&#9;&#9;&#9;&#9;c-2.3,0-2.4-1.6-2.4-3.5v-6.1h-2.1V60h2.1v-2.5l1.3-0.5v3h2.4V61.1z"/>
								<path class="st6" d="M67.1,68.9c0.8,0.4,1.7,0.7,2.7,0.7c1.2,0,2.3-0.7,2.3-1.9c0-2.5-5-2.1-5-5.1c0-2.1,1.7-2.9,3.4-2.9&#10;&#9;&#9;&#9;&#9;&#9;&#9;&#9;&#9;&#9;c0.6,0,1.7,0.1,2.6,0.5L73,61.3c-0.7-0.3-1.6-0.5-2.3-0.5c-1.3,0-2.3,0.4-2.3,1.8c0,2,5.2,1.7,5.2,5.1c0,2.2-2.1,3-3.7,3&#10;&#9;&#9;&#9;&#9;&#9;&#9;&#9;&#9;&#9;c-1,0-2-0.1-2.9-0.5L67.1,68.9z"/>
								<path class="st6" d="M82.8,61.4c-0.7-0.3-1.5-0.5-2.2-0.5c-2.5,0-4,1.8-4,4.4c0,2.4,1.4,4.4,3.8,4.4c0.8,0,1.6-0.2,2.4-0.5&#10;&#9;&#9;&#9;&#9;&#9;&#9;&#9;&#9;&#9;l0.1,1.2c-0.9,0.3-1.7,0.4-2.7,0.4c-3.4,0-5-2.6-5-5.5c0-3.2,2.1-5.5,5.2-5.5c1.3,0,2.2,0.3,2.5,0.4L82.8,61.4z"/>
								<path class="st6" d="M85.1,55h1.3v6.7h0c0.6-1.2,1.7-2,3.3-2c2.8,0,3.6,1.9,3.6,4.5v6.3H92v-6.3c0-1.8-0.3-3.4-2.5-3.4&#10;&#9;&#9;&#9;&#9;&#9;&#9;&#9;&#9;&#9;c-2.3,0-3.1,2.2-3.1,4v5.6h-1.3V55z"/>
								<path class="st6" d="M96.5,55h1.3v15.4h-1.3V55z"/>
								<path class="st6" d="M107.1,68.8L107.1,68.8c-0.6,1.3-2.1,1.9-3.4,1.9c-3,0-3.5-2-3.5-3c0-3.5,3.7-3.7,6.5-3.7h0.2v-0.5&#10;&#9;&#9;&#9;&#9;&#9;&#9;&#9;&#9;&#9;c0-1.8-0.6-2.7-2.4-2.7c-1.1,0-2.1,0.2-3.1,0.9v-1.3c0.8-0.4,2.2-0.7,3.1-0.7c2.6,0,3.7,1.2,3.7,3.9v4.6&#10;&#9;&#9;&#9;&#9;&#9;&#9;&#9;&#9;&#9;c0,0.8,0,1.5,0.1,2.2h-1.3V68.8z M107,65.2h-0.4c-2.2,0-4.9,0.2-4.9,2.5c0,1.4,1,1.9,2.2,1.9c3,0,3.1-2.7,3.1-3.8V65.2z"/>
								<path class="st6" d="M111.4,62.4c0-0.8,0-1.6-0.1-2.5h1.3v1.9h0c0.4-0.9,1.2-2.1,3.4-2.1c2.6,0,3.6,1.7,3.6,4v6.7h-1.3v-6.4&#10;&#9;&#9;&#9;&#9;&#9;&#9;&#9;&#9;&#9;c0-2-0.7-3.3-2.5-3.3c-2.4,0-3.1,2.1-3.1,3.8v5.8h-1.3V62.4z"/>
								<path class="st6" d="M131.1,70.5h-1.3v-1.7h0c-0.7,1.3-1.8,1.9-3.3,1.9c-2.9,0-4.3-2.4-4.3-5.5c0-3.2,1.2-5.5,4.3-5.5&#10;&#9;&#9;&#9;&#9;&#9;&#9;&#9;&#9;&#9;c2.1,0,3.1,1.5,3.3,2h0V55h1.3V70.5z M126.7,69.6c2.3,0,3.1-2.5,3.1-4.4c0-1.9-0.8-4.4-3.1-4.4c-2.5,0-3.1,2.3-3.1,4.4&#10;&#9;&#9;&#9;&#9;&#9;&#9;&#9;&#9;&#9;C123.6,67.3,124.3,69.6,126.7,69.6z"/>
							</g>
						</g>
					</g>
				</g>
			</g>
		</g>
	</g>
</g>
</svg>